<?xml version="1.0" encoding="utf-8"?>
<!-- Generator: Adobe Illustrator 19.0.0, SVG Export Plug-In . SVG Version: 6.00 Build 0)  -->
<svg version="1.1" xmlns="http://www.w3.org/2000/svg" xmlns:xlink="http://www.w3.org/1999/xlink" x="0px" y="0px"
	 viewBox="0 0 362 75.4" style="enable-background:new 0 0 362 75.4;" xml:space="preserve">
<style type="text/css">
	.st0{fill:none;}
	.st1{fill:#FFFFFF;}
	.st2{font-family:'PlayfairDisplay-Regular';}
	.st3{font-size:49px;}
</style>
<g id="Layer_1">
	<rect id="XMLID_2_" x="15.4" y="31.2" class="st0" width="429" height="40"/>
	<text id="XMLID_1_" transform="matrix(1 0 0 1 15.3876 69.6253)" class="st1 st2 st3">Class Connect</text>
</g>
<g id="Layer_2">
	<g id="XMLID_59_">
		<path id="XMLID_1086_" class="st1" d="M44.9,20l-16.6,1.5c-2.5,0.2-4.8,1.1-6.9,2.4L7.5,33.1c-1,0.6-0.4,2.1,0.7,2l2.7-0.2
			l1.9,5.4c-0.3,0.2-0.4,0.6-0.3,1c0.1,0.3,0.3,0.5,0.6,0.5l0.6,4.4c0.1,0.9,1,1.4,1.9,1.1c0.8-0.3,1.2-1.3,0.7-2l-2.3-3.9
			c0.1-0.2,0.2-0.5,0.1-0.7c-0.1-0.3-0.4-0.6-0.8-0.6l-1.8-5.3l13.3-1.2c2.5-0.2,4.8-1.1,6.9-2.4l13.9-9.1
			C46.6,21.4,46,19.9,44.9,20z"/>
		<path id="XMLID_60_" class="st1" d="M28.7,33.8c-1.2,0.4-2.5,0.7-3.8,0.8l-8.4,0.8l2.2,6.4c0.6,1.8,6.2,1.5,12.5-0.7
			s10.9-5.4,10.2-7.2l-2.2-6.4l-7,4.6C31.2,32.8,30,33.4,28.7,33.8z"/>
	</g>
	<g id="XMLID_53_">
		<g id="XMLID_54_">
			<path id="XMLID_58_" class="st1" d="M349.7,23.4c-1.7-5.9-5.5-10.9-10.9-14c-5.3-3.1-11.5-4.1-17.5-2.7c-0.3,0.1-0.5,0.4-0.4,0.8
				l0.7,2.6c0.1,0.3,0.4,0.5,0.7,0.4c5-1.1,10.2-0.3,14.6,2.3s7.6,6.8,9.1,11.7c0.1,0.3,0.4,0.5,0.7,0.4l2.6-0.7
				C349.6,24.1,349.8,23.7,349.7,23.4z"/>
			<path id="XMLID_57_" class="st1" d="M335.3,15.4c-3.7-2.2-8.1-2.9-12.3-1.9c-0.3,0.1-0.5,0.4-0.4,0.8l0.7,2.6
				c0.1,0.3,0.4,0.5,0.7,0.4c3.1-0.7,6.5-0.1,9.3,1.5c2.8,1.7,4.9,4.3,5.8,7.4c0.1,0.3,0.4,0.5,0.7,0.4l2.6-0.7
				c0.3-0.1,0.6-0.5,0.4-0.8C341.7,21,339,17.6,335.3,15.4z"/>
			<path id="XMLID_56_" class="st1" d="M331.7,21.4c-2.1-1.3-4.6-1.7-7-1.2c-0.4,0.1-0.6,0.4-0.5,0.8l0.7,2.6
				c0.1,0.3,0.4,0.5,0.7,0.4c2.8-0.4,5.7,1.3,6.7,3.9c0.1,0.3,0.4,0.5,0.7,0.4l2.6-0.7c0.3-0.1,0.6-0.5,0.4-0.8
				C335.4,24.6,333.9,22.6,331.7,21.4z"/>
			<path id="XMLID_55_" class="st1" d="M328.2,27.4c-1.4-0.8-3.3-0.4-4.1,1.1c-0.8,1.4-0.4,3.3,1.1,4.1c1.4,0.8,3.3,0.4,4.1-1.1
				C330.1,30.1,329.6,28.3,328.2,27.4z"/>
		</g>
	</g>
</g>
</svg>
